<?xml version="1.0" standalone="no"?>
<!DOCTYPE svg PUBLIC "-//W3C//DTD SVG 20010904//EN"
 "http://www.w3.org/TR/2001/REC-SVG-20010904/DTD/svg10.dtd">
<svg version="1.0" xmlns="http://www.w3.org/2000/svg"
 width="512.000000pt" height="512.000000pt" viewBox="0 0 512.000000 512.000000"
 preserveAspectRatio="xMidYMid meet">
<metadata>
Created by potrace 1.11, written by Peter Selinger 2001-2013
</metadata>
<g transform="translate(0.000000,512.000000) scale(0.100000,-0.100000)"
fill="#000000" stroke="none">
<path d="M1518 4444 l-1027 -514 0 -1370 0 -1371 1034 -517 1034 -517 1035
518 1035 517 0 1370 0 1370 -1029 515 c-567 283 -1036 515 -1042 514 -7 0
-475 -232 -1040 -515z m1267 249 l215 -108 -697 -348 c-384 -192 -700 -351
-701 -352 -2 -2 25 -18 61 -35 l65 -31 701 351 701 350 629 -312 c346 -172
630 -316 630 -319 1 -3 -411 -212 -914 -463 l-916 -458 -220 111 -220 110 678
339 c373 186 689 344 702 351 24 13 24 14 -35 42 -32 15 -64 28 -70 29 -6 0
-325 -157 -708 -348 l-696 -349 -625 313 c-344 172 -626 316 -626 321 -1 8
1799 912 1819 912 7 1 109 -47 227 -106z m-1220 -1385 l925 -463 0 -362 0
-363 -702 351 -703 351 -5 -28 c-6 -36 -5 -983 2 -989 3 -3 321 -163 706 -355
l702 -350 0 -375 0 -375 -157 79 c-87 43 -505 252 -930 464 l-772 386 0 1246
c1 685 2 1245 5 1245 2 0 420 -208 929 -462z m2921 101 l-1 -362 -627 -313
-628 -314 0 -511 c0 -280 3 -508 8 -506 4 2 190 95 415 207 l407 204 0 72 0
72 -347 -173 c-191 -96 -349 -172 -351 -170 -3 3 -5 583 -3 697 1 27 28 41
561 308 308 154 562 280 564 280 2 0 3 -365 2 -811 l-1 -812 -875 -438 c-481
-240 -899 -449 -927 -463 l-53 -26 0 1248 0 1247 923 462 c507 254 925 462
928 462 4 1 6 -162 5 -360z m-2631 -1116 l635 -318 0 -362 c0 -200 -3 -363 -7
-363 -3 0 -291 143 -640 317 l-633 317 0 70 c-1 85 -1 650 0 654 1 6 50 -18
645 -315z"/>
</g>
</svg>
