<?xml version="1.0" standalone="no"?>
<!DOCTYPE svg PUBLIC "-//W3C//DTD SVG 20010904//EN"
 "http://www.w3.org/TR/2001/REC-SVG-20010904/DTD/svg10.dtd">
<svg version="1.0" xmlns="http://www.w3.org/2000/svg"
 width="512.000000pt" height="512.000000pt" viewBox="0 0 512.000000 512.000000"
 preserveAspectRatio="xMidYMid meet">
<metadata>
Created by potrace 1.11, written by Peter Selinger 2001-2013
</metadata>
<g transform="translate(0.000000,512.000000) scale(0.100000,-0.100000)"
fill="#000000" stroke="none">
<path d="M1455 4562 l-1090 -547 0 -1455 0 -1455 1098 -550 1097 -550 1098
550 1097 550 0 1455 0 1455 -1090 547 c-600 301 -1097 547 -1105 547 -8 0
-505 -246 -1105 -547z m1342 276 c127 -62 232 -116 232 -119 1 -3 -335 -173
-746 -379 l-746 -373 63 -32 c63 -32 65 -32 99 -16 20 9 358 178 751 375 l716
358 679 -340 680 -340 -982 -491 -983 -491 -238 119 -239 119 750 375 750 375
-66 32 -67 32 -748 -374 -748 -375 -678 339 c-373 187 -677 341 -675 342 9 8
1945 975 1954 976 6 0 114 -50 242 -112z m1818 -1367 c0 -214 -2 -392 -5 -394
-8 -8 -1219 -610 -1277 -636 -29 -12 -53 -28 -54 -34 -4 -67 -2 -1062 2 -1069
4 -7 37 5 85 32 44 23 237 121 429 218 193 96 352 176 354 179 7 5 8 143 2
143 -4 0 -168 -81 -365 -180 -198 -99 -364 -180 -370 -180 -8 0 -11 112 -10
383 1 210 2 385 3 389 2 11 1201 610 1202 601 1 -5 2 -396 3 -869 l1 -862
-705 -352 c-388 -194 -834 -417 -992 -496 l-288 -144 0 1333 0 1332 993 497
c545 273 992 497 992 497 0 1 0 -174 0 -388z m-3110 -113 l985 -493 0 -387 c0
-214 -3 -388 -6 -388 -3 0 -341 168 -750 373 l-744 374 -1 -36 c-1 -50 -1
-1001 0 -1029 1 -19 20 -32 118 -78 64 -30 401 -197 750 -371 l633 -317 0
-403 0 -403 -990 495 c-545 272 -991 498 -991 503 -6 36 -2 2652 3 2652 5 0
451 -222 993 -492z m305 -1078 l680 -340 0 -394 0 -395 -687 344 -688 344 0
390 c0 215 3 391 7 391 4 0 313 -153 688 -340z"/>
</g>
</svg>
