<?xml version="1.0" encoding="utf-8"?>
<!-- Generator: Adobe Illustrator 24.0.3, SVG Export Plug-In . SVG Version: 6.00 Build 0)  -->
<svg version="1.1" id="Layer_1" xmlns="http://www.w3.org/2000/svg" xmlns:xlink="http://www.w3.org/1999/xlink" x="0px" y="0px"
	 viewBox="0 0 695.6 225.1" style="enable-background:new 0 0 695.6 225.1;" xml:space="preserve">
<style type="text/css">
	.st0{fill:#FFFFFF;}
</style>
<g>
	<g>
		<g>
			<g>
				<path class="st0" d="M440.4,103.4c-1.4,1.6-3.9,3.3-8.2,3.3c-6.5,0-11.5-4.6-11.5-11.6s5-11.6,11.5-11.6c4.2,0,6.7,1.8,8,3
					l-1.3,2.5c-0.9-1.1-3.4-2.7-6.5-2.7c-4.8,0-8.4,3.5-8.4,8.8s3.5,8.8,8.4,8.8c3,0,5.2-1.1,6.7-2.7L440.4,103.4z"/>
				<path class="st0" d="M450.1,106.7c-4.6,0-8.2-3.2-8.2-8s3.6-8.1,8.2-8.1s8.2,3.3,8.2,8.1S454.7,106.7,450.1,106.7z M450.1,93.1
					c-3.1,0-5,2.4-5,5.4c0,3.1,1.9,5.5,5,5.5s5-2.4,5-5.5C455.1,95.5,453.2,93.1,450.1,93.1z"/>
				<path class="st0" d="M475,106.3h-3.2v-8.6c0-2.6-0.5-4.6-3.2-4.6c-2.9,0-4,2.4-4,5.4v7.8h-3.1V90.9h3.1v2.4h0.1
					c0.8-1.5,2.5-2.7,4.7-2.7c4.4,0,5.5,2.9,5.5,6.6v9.1H475z"/>
				<path class="st0" d="M488,105.3c-1.1,0.9-2.5,1.4-4.3,1.4c-2.6,0-4.7-1.1-6-2.8l1.5-1.8c1.2,1.4,3.1,2.2,4.6,2.2
					c1.4,0,3-0.5,3-2.2s-2.4-2.2-3.5-2.6c-1-0.4-1.4-0.4-2.1-0.8c-1-0.5-2.4-1.5-2.4-3.7c0-2.9,2.5-4.4,5.2-4.4s4.3,1,5.3,2
					l-1.3,1.9c-0.9-0.9-2.4-1.7-3.9-1.7s-2.5,0.6-2.5,1.9s1.5,1.8,3,2.3c0.8,0.3,1.4,0.5,2.1,0.7c0.6,0.3,1.3,0.7,1.8,1.1
					c0.6,0.6,1.2,1.5,1.2,2.9C489.5,103.3,489,104.5,488,105.3z"/>
				<path class="st0" d="M506.6,99.4h-11.9c0.2,3.1,2.1,4.9,5,4.9s4.8-1.6,5.1-1.8l1.3,1.8c-0.2,0.2-2.2,2.4-6.8,2.4
					s-7.7-3.2-7.7-8.1s3.5-8,7.8-8s7.3,3.1,7.3,7.4C506.7,98.6,506.6,99.4,506.6,99.4z M503.8,97.3c0-1.7-1.3-4.4-4.5-4.4
					c-3.1,0-4.5,2.6-4.6,4.4H503.8z"/>
				<path class="st0" d="M511.5,87.7c-1.2,0-2-0.8-2-1.9s0.8-1.9,2-1.9s2,0.8,2,1.9S512.7,87.7,511.5,87.7z M513.1,106.3H510V90.9
					h3.1V106.3z"/>
				<path class="st0" d="M520.7,106.3h-3.1V83.9h3.1V106.3z"/>
				<path class="st0" d="M546.6,106.3h-3v-2.4h-0.1c-1.3,1.9-3.2,2.8-5.4,2.8c-4.6,0-7.5-3.5-7.5-8.1s2.9-8,7.5-8
					c2.5,0,4.3,1.1,5.4,2.7h0.1v-9.4h3.1L546.6,106.3L546.6,106.3z M538.7,93.1c-3.1,0-4.9,2.3-4.9,5.4s1.8,5.5,4.9,5.5
					c3.1,0,4.9-2.4,4.9-5.5C543.6,95.5,541.8,93.1,538.7,93.1z"/>
				<path class="st0" d="M565.1,99.4h-11.9c0.2,3.1,2.1,4.9,5,4.9s4.8-1.6,5.1-1.8l1.3,1.8c-0.2,0.2-2.2,2.4-6.8,2.4
					s-7.7-3.2-7.7-8.1s3.5-8,7.8-8s7.3,3.1,7.3,7.4C565.2,98.6,565.1,99.4,565.1,99.4z M562.3,97.3c0-1.7-1.3-4.4-4.5-4.4
					c-3.1,0-4.5,2.6-4.6,4.4H562.3z"/>
				<path class="st0" d="M577.1,105.3c-1.1,0.9-2.5,1.4-4.3,1.4c-2.6,0-4.7-1.1-6-2.8l1.5-1.8c1.2,1.4,3.1,2.2,4.6,2.2
					c1.4,0,3-0.5,3-2.2s-2.4-2.2-3.5-2.6c-1-0.4-1.4-0.4-2.1-0.8c-1-0.5-2.4-1.5-2.4-3.7c0-2.9,2.5-4.4,5.2-4.4s4.3,1,5.3,2
					l-1.3,1.9c-0.9-0.9-2.4-1.7-3.9-1.7s-2.5,0.6-2.5,1.9s1.5,1.8,3,2.3c0.8,0.3,1.4,0.5,2.1,0.7c0.6,0.3,1.3,0.7,1.8,1.1
					c0.6,0.6,1.2,1.5,1.2,2.9C578.7,103.3,578.1,104.5,577.1,105.3z"/>
				<path class="st0" d="M600.3,106.3h-3v-2c-0.6,0.7-2.1,2.3-4.9,2.3c-2.9,0-5.3-1.8-5.3-4.8s2.5-4.6,6.1-4.7l4.1-0.2v-0.6
					c0-2.3-1.6-3.5-3.8-3.5s-4.1,1-4.7,1.3l-0.9-2.1c1.1-0.7,3.2-1.6,5.8-1.6s4.1,0.7,5.1,1.8c1,1.1,1.7,2.4,1.7,5v9.1H600.3z
					 M597.2,98.9l-3.6,0.2c-2.5,0.1-3.5,1.2-3.5,2.7s1.1,2.7,3.2,2.7c2,0,3.4-1.4,3.9-2.2L597.2,98.9L597.2,98.9z"/>
				<path class="st0" d="M612.7,93.8L612.7,93.8c-0.4-0.1-0.9-0.3-1.8-0.3c-1.4,0-2.2,0.9-2.5,1.3s-0.9,1.6-0.9,3.9v7.7h-3.1V90.9
					h3.1v2.4h0.1c0.7-1.8,2.1-2.7,3.8-2.7c1,0,1.6,0.3,1.6,0.3L612.7,93.8z"/>
				<path class="st0" d="M622.7,106.2c0,0-1.2,0.5-2.8,0.5s-2.6-0.6-3.3-1.6c-0.6-1-0.8-2.2-0.8-4.6v-7.1h-2.3v-2.5h2.3v-4.6h3.1
					v4.6h3.7v2.5h-3.7v7c0,1.3,0,2.2,0.4,2.8c0.3,0.5,0.7,0.8,1.6,0.8c0.9,0,1.6-0.4,1.6-0.4L622.7,106.2z"/>
				<path class="st0" d="M634.1,105.3c-1.1,0.9-2.5,1.4-4.3,1.4c-2.6,0-4.7-1.1-6-2.8l1.5-1.8c1.2,1.4,3.1,2.2,4.6,2.2
					c1.4,0,3-0.5,3-2.2s-2.4-2.2-3.5-2.6c-1-0.4-1.4-0.4-2.1-0.8c-1-0.5-2.4-1.5-2.4-3.7c0-2.9,2.5-4.4,5.2-4.4s4.3,1,5.3,2
					l-1.3,1.9c-0.9-0.9-2.4-1.7-3.9-1.7s-2.5,0.6-2.5,1.9s1.5,1.8,3,2.3c0.8,0.3,1.4,0.5,2.1,0.7c0.6,0.3,1.3,0.7,1.8,1.1
					c0.6,0.6,1.2,1.5,1.2,2.9C635.7,103.3,635.1,104.5,634.1,105.3z"/>
				<path class="st0" d="M436.6,142.9h-3v-2.5h-0.1c-1.3,1.9-3.2,2.8-5.4,2.8c-4.6,0-7.5-3.5-7.5-8.1s2.9-8,7.5-8
					c2.5,0,4.3,1.1,5.4,2.7h0.1v-9.4h3.1v22.5H436.6z M428.7,129.7c-3.1,0-4.9,2.3-4.9,5.4s1.8,5.5,4.9,5.5s4.9-2.4,4.9-5.5
					C433.6,132.1,431.8,129.7,428.7,129.7z"/>
				<path class="st0" d="M454.2,142.9h-3v-2.2c-0.8,1.5-2.6,2.6-4.8,2.6c-2.2,0-3.5-0.8-4.3-1.8s-1.1-2.6-1.1-4.8v-9.3h3.1v9.1
					c0,2.1,0.5,4.1,3.2,4.1s3.8-2.3,3.8-4.9v-8.3h3.1L454.2,142.9L454.2,142.9z"/>
				<path class="st0" d="M483.7,140c-1.4,1.6-3.9,3.3-8.2,3.3c-6.5,0-11.5-4.6-11.5-11.6s5-11.6,11.5-11.6c4.2,0,6.7,1.8,8,3
					l-1.3,2.5c-0.9-1.1-3.4-2.7-6.5-2.7c-4.9,0-8.4,3.5-8.4,8.8s3.5,8.8,8.4,8.8c3,0,5.2-1.1,6.7-2.7L483.7,140z"/>
				<path class="st0" d="M498.6,142.9h-3v-2c-0.6,0.7-2.1,2.3-4.9,2.3c-2.9,0-5.3-1.8-5.3-4.8s2.5-4.6,6.1-4.7l4.1-0.2v-0.6
					c0-2.3-1.6-3.5-3.8-3.5s-4.1,1-4.7,1.3l-0.9-2.1c1.1-0.6,3.2-1.6,5.8-1.6s4.1,0.7,5.1,1.8c1,1.1,1.7,2.4,1.7,5v9.1H498.6z
					 M495.5,135.5l-3.6,0.2c-2.5,0.1-3.5,1.2-3.5,2.7s1.1,2.7,3.2,2.7c2,0,3.4-1.4,3.9-2.2L495.5,135.5L495.5,135.5z"/>
				<path class="st0" d="M516.1,142.9H513v-8.6c0-2.6-0.5-4.6-3.2-4.6c-2.9,0-4,2.4-4,5.4v7.8h-3.1v-15.5h3.1v2.4h0.1
					c0.8-1.5,2.5-2.7,4.7-2.7c4.4,0,5.5,2.9,5.5,6.6V142.9z"/>
				<path class="st0" d="M532.2,142.9h-3v-2c-0.6,0.7-2.1,2.3-4.9,2.3c-2.9,0-5.3-1.8-5.3-4.8s2.5-4.6,6.1-4.7l4.1-0.2v-0.6
					c0-2.3-1.6-3.5-3.8-3.5s-4.1,1-4.7,1.3l-0.9-2.1c1.1-0.6,3.2-1.6,5.8-1.6s4.1,0.7,5.1,1.8c1,1.1,1.7,2.4,1.7,5v9.1H532.2z
					 M529.1,135.5l-3.6,0.2c-2.5,0.1-3.5,1.2-3.5,2.7s1.1,2.7,3.2,2.7c2,0,3.4-1.4,3.9-2.2L529.1,135.5L529.1,135.5z"/>
				<path class="st0" d="M551.2,142.9h-3v-2.5h-0.1c-1.3,1.9-3.2,2.8-5.4,2.8c-4.6,0-7.5-3.5-7.5-8.1s2.9-8,7.5-8
					c2.5,0,4.3,1.1,5.4,2.7h0.1v-9.4h3.1L551.2,142.9L551.2,142.9z M543.3,129.7c-3.1,0-4.9,2.3-4.9,5.4s1.8,5.5,4.9,5.5
					c3.1,0,4.9-2.4,4.9-5.5C548.2,132.1,546.4,129.7,543.3,129.7z"/>
				<path class="st0" d="M567.7,142.9h-3v-2c-0.6,0.7-2.1,2.3-4.9,2.3c-2.9,0-5.3-1.8-5.3-4.8s2.5-4.6,6-4.7l4.1-0.2v-0.6
					c0-2.3-1.6-3.5-3.8-3.5s-4.1,1-4.7,1.3l-0.9-2.1c1.1-0.6,3.2-1.6,5.8-1.6s4.1,0.7,5.1,1.8c1,1.1,1.7,2.4,1.7,5L567.7,142.9
					L567.7,142.9z M564.6,135.5l-3.6,0.2c-2.5,0.1-3.5,1.2-3.5,2.7s1.1,2.7,3.2,2.7c2,0,3.4-1.4,3.9-2.2L564.6,135.5L564.6,135.5z"
					/>
			</g>
		</g>
		<g>
			<path class="st0" d="M198.1,103.4c-1.4,1.6-3.9,3.3-8.2,3.3c-6.5,0-11.5-4.6-11.5-11.6s5-11.6,11.5-11.6c4.2,0,6.7,1.8,8,3
				l-1.3,2.5c-0.9-1.1-3.4-2.7-6.5-2.7c-4.8,0-8.4,3.5-8.4,8.8s3.5,8.8,8.4,8.8c3,0,5.2-1.1,6.7-2.7L198.1,103.4z"/>
			<path class="st0" d="M213,106.3h-3v-2c-0.6,0.7-2.1,2.3-4.9,2.3c-2.9,0-5.3-1.8-5.3-4.8s2.5-4.6,6.1-4.7l4.1-0.2v-0.6
				c0-2.3-1.6-3.5-3.8-3.5s-4.1,1-4.7,1.3l-0.9-2.1c1.1-0.7,3.2-1.6,5.8-1.6c2.6,0,4.1,0.7,5.1,1.8c1,1.1,1.7,2.4,1.7,5v9.1H213z
				 M209.9,98.9l-3.6,0.2c-2.5,0.1-3.5,1.2-3.5,2.7s1.1,2.7,3.2,2.7c2,0,3.4-1.4,3.9-2.2V98.9z"/>
			<path class="st0" d="M230.4,106.3h-3.1v-8.6c0-2.6-0.5-4.6-3.2-4.6c-2.9,0-4,2.4-4,5.4v7.8H217V90.9h3.1v2.4h0.1
				c0.8-1.5,2.5-2.7,4.7-2.7c4.4,0,5.5,2.9,5.5,6.6V106.3z"/>
			<path class="st0" d="M246.6,106.3h-3v-2c-0.6,0.7-2.1,2.3-4.9,2.3c-2.9,0-5.3-1.8-5.3-4.8s2.5-4.6,6.1-4.7l4.1-0.2v-0.6
				c0-2.3-1.6-3.5-3.8-3.5c-2.2,0-4.1,1-4.7,1.3l-0.9-2.1c1.1-0.7,3.2-1.6,5.8-1.6s4.1,0.7,5.1,1.8c1,1.1,1.7,2.4,1.7,5v9.1H246.6z
				 M243.5,98.9l-3.6,0.2c-2.5,0.1-3.5,1.2-3.5,2.7s1.1,2.7,3.2,2.7c2,0,3.4-1.4,3.9-2.2V98.9z"/>
			<path class="st0" d="M265.6,106.3h-3v-2.4h-0.1c-1.3,1.9-3.2,2.8-5.4,2.8c-4.6,0-7.5-3.5-7.5-8.1s2.9-8,7.5-8
				c2.5,0,4.3,1.1,5.4,2.7h0.1v-9.4h3.1v22.4H265.6z M257.7,93.1c-3.1,0-4.9,2.3-4.9,5.4s1.8,5.5,4.9,5.5s4.9-2.4,4.9-5.5
				C262.6,95.5,260.8,93.1,257.7,93.1z"/>
			<path class="st0" d="M282,106.3h-3v-2c-0.6,0.7-2.1,2.3-4.9,2.3c-2.9,0-5.3-1.8-5.3-4.8s2.5-4.6,6.1-4.7l4.1-0.2v-0.6
				c0-2.3-1.6-3.5-3.8-3.5c-2.2,0-4.1,1-4.7,1.3l-0.9-2.1c1.1-0.7,3.2-1.6,5.8-1.6c2.6,0,4.1,0.7,5.1,1.8c1,1.1,1.7,2.4,1.7,5v9.1
				H282z M278.9,98.9l-3.6,0.2c-2.5,0.1-3.5,1.2-3.5,2.7s1.1,2.7,3.2,2.7c2,0,3.4-1.4,3.9-2.2V98.9z"/>
			<path class="st0" d="M311.3,103.4c-1.4,1.6-3.9,3.3-8.2,3.3c-6.5,0-11.5-4.6-11.5-11.6s5-11.6,11.5-11.6c4.2,0,6.7,1.8,8,3
				l-1.3,2.5c-0.9-1.1-3.4-2.7-6.5-2.7c-4.8,0-8.4,3.5-8.4,8.8s3.5,8.8,8.4,8.8c3,0,5.2-1.1,6.7-2.7L311.3,103.4z"/>
			<path class="st0" d="M321,106.7c-4.6,0-8.2-3.2-8.2-8s3.6-8.1,8.2-8.1s8.2,3.3,8.2,8.1C329.2,103.5,325.6,106.7,321,106.7z
				 M321,93.1c-3.1,0-5,2.4-5,5.4c0,3.1,1.9,5.5,5,5.5s5-2.4,5-5.5C326,95.5,324.1,93.1,321,93.1z"/>
			<path class="st0" d="M345.5,106.3h-3v-2.2c-0.8,1.5-2.6,2.6-4.8,2.6c-2.2,0-3.5-0.7-4.3-1.8c-0.8-1-1.1-2.6-1.1-4.8v-9.2h3.1v9.1
				c0,2.1,0.5,4.1,3.2,4.1s3.8-2.3,3.8-4.9v-8.3h3.1L345.5,106.3L345.5,106.3z"/>
			<path class="st0" d="M363.3,106.3h-3.1v-8.6c0-2.6-0.5-4.6-3.2-4.6c-2.9,0-4,2.4-4,5.4v7.8h-3.2V90.9h3.1v2.4h0.1
				c0.8-1.5,2.5-2.7,4.7-2.7c4.4,0,5.5,2.9,5.5,6.6L363.3,106.3L363.3,106.3z"/>
			<path class="st0" d="M380.4,104.4c-0.5,0.5-2,2.3-6.2,2.3s-7.8-3.1-7.8-8.1s3.8-8,7.9-8s5.8,2,6,2.2l-1.1,2.3
				c-0.5-0.5-1.9-1.9-4.6-1.9s-5,2.1-5,5.3c0,3.3,2,5.5,5,5.5s4.7-2,4.7-2L380.4,104.4z"/>
			<path class="st0" d="M384.6,87.7c-1.2,0-2-0.8-2-1.9s0.8-1.9,2-1.9s2,0.8,2,1.9S385.8,87.7,384.6,87.7z M386.2,106.3h-3.1V90.9
				h3.1V106.3z"/>
			<path class="st0" d="M393.8,106.3h-3.1V83.9h3.1V106.3z"/>
			<path class="st0" d="M187.2,122.8c0,0-0.9-0.3-1.8-0.3c-2,0-2.4,1.5-2.4,3.3v1.7h3.7v2.5H183v12.9h-3.1V130h-2.2v-2.5h2.2v-1.6
				c0-2,0.4-3.3,1-4.1c0.7-0.8,1.9-1.7,3.7-1.7s2.7,0.4,2.7,0.4L187.2,122.8z"/>
			<path class="st0" d="M195.4,143.3c-4.6,0-8.2-3.2-8.2-8s3.6-8.1,8.2-8.1c4.6,0,8.2,3.3,8.2,8.1
				C203.5,140.1,200,143.3,195.4,143.3z M195.4,129.7c-3.1,0-5,2.4-5,5.4c0,3.1,1.9,5.5,5,5.5s5-2.4,5-5.5
				C200.4,132.1,198.5,129.7,195.4,129.7z"/>
			<path class="st0" d="M215.2,130.4h-0.1c-0.3-0.1-0.8-0.3-1.7-0.3c-1.4,0-2.2,0.9-2.5,1.3s-0.9,1.6-0.9,3.9v7.7h-3.2v-15.5h3.1
				v2.4h0.1c0.7-1.8,2.1-2.7,3.8-2.7c1,0,1.6,0.3,1.6,0.3L215.2,130.4z"/>
			<path class="st0" d="M231.7,142.8c0,0-1.2,0.5-2.8,0.5c-1.6,0-2.6-0.6-3.3-1.6c-0.6-1-0.8-2.2-0.8-4.6V130h-2.3v-2.5h2.3v-4.6
				h3.1v4.6h3.7v2.5h-3.7v7c0,1.3,0,2.2,0.4,2.8c0.3,0.5,0.7,0.8,1.6,0.8s1.6-0.4,1.6-0.4L231.7,142.8z"/>
			<path class="st0" d="M247.9,142.9h-3.1v-8.8c0-2.2-0.4-4.4-3.2-4.4c-2.8,0-4,2.4-4,5.5v7.6h-3.1v-22.4h3.1v9.4h0.1
				c0.8-1.5,2.5-2.7,4.8-2.7c4.5,0,5.5,2.9,5.5,6.5L247.9,142.9L247.9,142.9z"/>
			<path class="st0" d="M266.1,136h-11.9c0.2,3.1,2.1,4.9,5,4.9s4.8-1.6,5.1-1.8l1.3,1.8c-0.2,0.2-2.2,2.4-6.8,2.4
				c-4.6,0-7.7-3.2-7.7-8.1s3.5-8,7.8-8s7.3,3.1,7.3,7.4C266.2,135.2,266.1,136,266.1,136z M263.3,133.9c0-1.7-1.3-4.4-4.5-4.4
				c-3.1,0-4.5,2.6-4.6,4.4H263.3z"/>
			<path class="st0" d="M294.8,142.9h-3.5L289,137h-9.6l-2.3,5.9h-3.3l9.1-22.5h2.8L294.8,142.9z M288.1,134.5l-3.9-10.1l-3.9,10.1
				H288.1z"/>
			<path class="st0" d="M305.4,130.4h-0.1c-0.3-0.1-0.8-0.3-1.7-0.3c-1.4,0-2.2,0.9-2.5,1.3s-0.9,1.6-0.9,3.9v7.7h-3.1v-15.5h3.1
				v2.4h0.1c0.7-1.8,2.1-2.7,3.8-2.7c1,0,1.6,0.3,1.6,0.3L305.4,130.4z"/>
			<path class="st0" d="M315.4,142.8c0,0-1.2,0.5-2.8,0.5c-1.6,0-2.6-0.6-3.3-1.6c-0.6-1-0.8-2.2-0.8-4.6V130h-2.3v-2.5h2.3v-4.6
				h3.1v4.6h3.7v2.5h-3.7v7c0,1.3,0,2.2,0.4,2.8c0.3,0.5,0.7,0.8,1.6,0.8s1.6-0.4,1.6-0.4L315.4,142.8z"/>
			<path class="st0" d="M326.8,141.9c-1.1,0.9-2.5,1.4-4.3,1.4c-2.6,0-4.7-1.1-6-2.8l1.5-1.8c1.2,1.4,3.1,2.2,4.6,2.2
				c1.4,0,3-0.5,3-2.2s-2.4-2.2-3.5-2.6c-1-0.4-1.4-0.4-2.1-0.8c-1-0.5-2.4-1.5-2.4-3.7c0-2.9,2.5-4.4,5.2-4.4s4.3,1,5.3,2l-1.3,1.9
				c-0.9-0.9-2.4-1.7-3.9-1.7s-2.5,0.6-2.5,1.9s1.5,1.8,3,2.3c0.8,0.3,1.4,0.5,2.1,0.7c0.6,0.3,1.3,0.7,1.8,1.1
				c0.6,0.6,1.2,1.5,1.2,2.9C328.4,139.9,327.8,141.1,326.8,141.9z"/>
		</g>
	</g>
	<g>
		<path class="st0" d="M152.8,143.8c-5-4.9-19.5-9.1-34.4-10c-1.1,0.8-1.8,1.7-2.2,2.6c12.5,0.6,24.6,4.1,29,8.1
			c4,3.2,3.4,7.6-1.3,10.6c-6.8,4.8-20.9,7-36.2,6.9c-15.3,0.1-29.4-2.1-36.2-6.9c-4.7-3-5.3-7.4-1.2-10.6c4.5-4,16.5-7.6,29-8.1
			c-0.4-0.9-1.2-1.7-2.2-2.6c-14.9,0.9-29.3,5.1-34.4,10c-6.8,6.2-1.4,13.2,13.5,17.6c8.3,2.5,20,3.9,31.5,3.9s23.2-1.4,31.5-3.9
			C154.1,157,159.6,150,152.8,143.8z"/>
		<path class="st0" d="M144.8,93.2c-0.3-4.1-3.6-7.3-7.6-8.8c1.6-2.3,1.9-4.8,0.7-7.6c-1.9-4.4-7-5.8-10.1-5.6
			c-4.3,0.3-6.9,2.1-11.5,5.6c-1.1-0.8-3.2-2.4-4.2-3.2l0,0c0,0,3.1-2.6,6.4-4.3c3.1-1.7,5.2-1.9,5.2-1.9s-5.5-7.5-16.1-7.6l0,0l0,0
			l0,0l0,0c-10.6,0.1-16.1,7.6-16.1,7.6s2.1,0.2,5.2,1.9c3.3,1.7,6.4,4.3,6.4,4.3c-0.9,0.7-3.1,2.3-4.2,3.2
			c-4.6-3.5-7.2-5.3-11.5-5.6c-3.1-0.2-8.2,1.2-10.1,5.6c-1.2,2.8-0.9,5.3,0.7,7.6c-4,1.5-7.3,4.7-7.6,8.8c-0.3,4.1,2.1,7.9,6.4,9.7
			c-1.2,1.5-1.8,3.3-1.8,4.8c0,4,3.6,9.4,11.2,9.2c5.7-0.2,7.9-1.9,12.4-5.4c0.3,0.4,3.7,5.9,3.7,15.4c0,0,0.5,7.3-3.1,25.1l0,0
			c0,1,3.7,1.7,8.3,1.7s8.3-0.8,8.3-1.7l0,0c-3.6-17.8-3.1-25.1-3.1-25.1c0-9.6,3.5-15,3.7-15.4c4.5,3.5,6.7,5.2,12.4,5.4
			c7.6,0.2,11.2-5.2,11.2-9.2c0-1.5-0.6-3.2-1.8-4.8C142.7,101.1,145.1,97.3,144.8,93.2z M127.7,76.9c4-0.2,5.5,2.2,5.2,3.8
			c-0.4,2-2.9,3.5-5.2,3.2c-2.3-0.2-4-1.4-6.7-3.6C122.8,78.9,125.1,77.1,127.7,76.9z M116.5,83.8c1.3,1,2.5,1.9,3.5,2.6
			c0.5,0.4,1,0.8,1.5,1.1c-0.7,0.5-1.2,0.9-2,1.5c-0.6,0.4-1.4,1.1-2.3,1.7c-1.4-1-3-2.3-4.9-3.7C113.6,86,114.9,84.9,116.5,83.8z
			 M111.9,80.3c-1.3,1-2.5,1.9-4.1,3.2l0,0l0,0c-1.6-1.2-2.8-2.2-4.1-3.2c1-0.8,2.3-1.8,4-3.1l0.1-0.1l0.1,0.1
			C109.6,78.5,110.8,79.5,111.9,80.3z M102,66.4c0,0,1.4-1.6,5.6-1.6c4.2,0,5.6,1.6,5.6,1.6s-1.1,0.6-2.6,1.7c-2,1.4-2.9,2.2-3,2.2
			c-0.1-0.1-1-0.9-3-2.2C103.1,67,102,66.4,102,66.4z M107.5,90.6l0.2-0.2l0.2,0.2c1.5,1.2,3.1,2.3,4.8,3.6c-1,0.7-1.8,1.3-2.5,1.9
			c-0.7,0.5-1.5,1.1-2.3,1.7l-0.1,0.1l-0.1-0.1c-0.8-0.6-1.6-1.2-2.3-1.7s-1.5-1.2-2.5-1.9C104.4,92.9,106,91.8,107.5,90.6z
			 M98.9,83.8c1.5,1.1,2.9,2.2,4.2,3.2c-1.9,1.5-3.6,2.7-5,3.7c-0.8-0.6-1.7-1.3-2.3-1.7c-0.8-0.6-1.3-1-2-1.5
			c0.5-0.3,1-0.7,1.5-1.1C96.4,85.7,97.7,84.7,98.9,83.8z M87.7,76.9c2.6,0.1,4.9,2,6.7,3.4c-2.8,2.2-4.5,3.4-6.7,3.6
			c-2.3,0.3-4.8-1.2-5.2-3.2C82.2,79.1,83.7,76.7,87.7,76.9z M76.1,94.3c-0.1-2.1,1.4-5.1,7-5.4c3.8-0.2,6.4,2,10.6,5.1
			c-3.3,2.5-5.9,4.7-10.7,5C79.2,99.3,76.2,96.5,76.1,94.3z M86.8,111.6c-4,0.2-6.4-1.8-6.2-4c0.1-1.7,3.9-5.7,11.8-2.2
			c1.1,0.5,2,1.1,2.9,1.8C91.4,110.2,89.9,111.5,86.8,111.6z M99.6,104c-1.5-1.4-3.1-2.6-5.2-3.6c1.3-0.8,2.5-1.8,3.8-2.8
			c0.1-0.1,0.1-0.1,0.1-0.1c1.8,1.3,3.5,2.6,5,3.7C102,102.2,100.8,103.1,99.6,104z M107.8,119l-0.1,0.5l-0.1-0.5
			c-1-4.1-2.2-7.7-4-10.4c1.4-1.1,2.7-2.1,4.1-3.1c1.3,1,2.6,2,4.1,3.1C110.1,111.3,108.8,114.9,107.8,119z M115.8,104
			c-1.2-0.9-2.4-1.8-3.7-2.8c1.5-1.1,3.2-2.4,4.9-3.7c0.1,0,0.1,0,0.1,0.1c1.3,1.1,2.5,2,3.8,2.8C118.9,101.4,117.3,102.6,115.8,104
			z M128.6,111.6c-3.1-0.1-4.5-1.4-8.5-4.3c0.9-0.8,1.8-1.3,2.9-1.8c7.9-3.6,11.7,0.4,11.8,2.2C135,109.8,132.6,111.8,128.6,111.6z
			 M132.4,99.1c-4.8-0.3-7.3-2.5-10.7-5c4.1-3.1,6.8-5.3,10.6-5.1c5.6,0.3,7.1,3.3,7,5.4C139.2,96.5,136.2,99.3,132.4,99.1z"/>
	</g>
</g>
</svg>
